<svg width="24" height="24" viewBox="0 0 24 24" fill="none" xmlns="http://www.w3.org/2000/svg">
<path d="M9.8439 12.0006L17.4614 5.65305C17.7654 5.39766 17.9559 5.03219 17.9911 4.63668C18.0262 4.24116 17.9032 3.84783 17.649 3.54282C17.3947 3.23781 17.03 3.04598 16.6346 3.00933C16.2392 2.97269 15.8454 3.09421 15.5394 3.3473L6.53907 10.8477C6.37031 10.9886 6.23456 11.165 6.14141 11.3642C6.04826 11.5634 5.99998 11.7806 5.99998 12.0005C5.99998 12.2205 6.04826 12.4377 6.14141 12.6369C6.23456 12.8361 6.37031 13.0124 6.53907 13.1534L15.5394 20.6538C15.8453 20.9081 16.2395 21.0306 16.6356 20.9944C17.0317 20.9582 17.3973 20.7662 17.6519 20.4607C17.9066 20.1552 18.0296 19.761 17.9939 19.3649C17.9581 18.9688 17.7666 18.603 17.4614 18.348L9.8439 12.0006Z" fill="white"/>
</svg>
